<svg width="36" height="36" viewBox="0 0 36 36" fill="none" xmlns="http://www.w3.org/2000/svg">
<rect x="0.5" y="0.5" width="35" height="35" rx="7.5" fill="white"/>
<rect x="0.5" y="0.5" width="35" height="35" rx="7.5" stroke="white"/>
<path d="M18.8333 12.1666C18.8333 11.7064 18.4602 11.3333 18 11.3333C17.5397 11.3333 17.1666 11.7064 17.1666 12.1666V17.1666H12.1666C11.7064 17.1666 11.3333 17.5397 11.3333 18C11.3333 18.4602 11.7064 18.8333 12.1666 18.8333H17.1666V23.8333C17.1666 24.2935 17.5397 24.6666 18 24.6666C18.4602 24.6666 18.8333 24.2935 18.8333 23.8333V18.8333H23.8333C24.2935 18.8333 24.6666 18.4602 24.6666 18C24.6666 17.5397 24.2935 17.1666 23.8333 17.1666H18.8333V12.1666Z" fill="#101828"/>
</svg>
