<svg width="266" height="127" viewBox="0 0 266 127" fill="none" xmlns="http://www.w3.org/2000/svg">
<path d="M0 12C0 5.37258 5.37258 0 12 0H253.75C260.377 0 265.75 5.37258 265.75 12V127H0V12Z" fill="#D0BFF6"/>
<g clip-path="url(#clip0_2_5494)">
<line x1="32" y1="13.8957" x2="233.672" y2="13.8957" stroke="#BDA6F2" stroke-width="0.139759"/>
<line x1="32" y1="18.8603" x2="233.672" y2="18.8603" stroke="#BDA6F2" stroke-width="0.139759"/>
<line x1="32" y1="23.824" x2="233.672" y2="23.824" stroke="#BDA6F2" stroke-width="0.139759"/>
<line x1="32" y1="28.7869" x2="233.672" y2="28.7869" stroke="#BDA6F2" stroke-width="0.139759"/>
<line x1="32" y1="33.7507" x2="233.672" y2="33.7507" stroke="#BDA6F2" stroke-width="0.139759"/>
<line x1="32" y1="38.7136" x2="233.672" y2="38.7136" stroke="#BDA6F2" stroke-width="0.139759"/>
<line x1="32" y1="43.6783" x2="233.672" y2="43.6783" stroke="#BDA6F2" stroke-width="0.139759"/>
<line x1="32" y1="48.6403" x2="233.672" y2="48.6403" stroke="#BDA6F2" stroke-width="0.139759"/>
<line x1="32" y1="53.6058" x2="233.672" y2="53.6058" stroke="#BDA6F2" stroke-width="0.139759"/>
<line x1="32" y1="58.5704" x2="233.672" y2="58.5704" stroke="#BDA6F2" stroke-width="0.139759"/>
<line x1="32" y1="63.5324" x2="233.672" y2="63.5324" stroke="#BDA6F2" stroke-width="0.139759"/>
<line x1="32" y1="68.497" x2="233.672" y2="68.497" stroke="#BDA6F2" stroke-width="0.139759"/>
<line x1="32" y1="73.4599" x2="233.672" y2="73.4599" stroke="#BDA6F2" stroke-width="0.139759"/>
<line x1="32" y1="78.4245" x2="233.672" y2="78.4245" stroke="#BDA6F2" stroke-width="0.139759"/>
<line x1="32" y1="83.3883" x2="233.672" y2="83.3883" stroke="#BDA6F2" stroke-width="0.139759"/>
<line x1="32" y1="88.3529" x2="233.672" y2="88.3529" stroke="#BDA6F2" stroke-width="0.139759"/>
<line x1="32" y1="93.3167" x2="233.672" y2="93.3167" stroke="#BDA6F2" stroke-width="0.139759"/>
<line x1="32" y1="98.2805" x2="233.672" y2="98.2805" stroke="#BDA6F2" stroke-width="0.139759"/>
<line x1="32" y1="103.243" x2="233.672" y2="103.243" stroke="#BDA6F2" stroke-width="0.139759"/>
<line x1="32" y1="108.207" x2="233.672" y2="108.207" stroke="#BDA6F2" stroke-width="0.139759"/>
<line x1="32" y1="113.17" x2="233.672" y2="113.17" stroke="#BDA6F2" stroke-width="0.139759"/>
<line x1="32" y1="118.134" x2="233.672" y2="118.134" stroke="#BDA6F2" stroke-width="0.139759"/>
<line x1="222.561" y1="113.922" x2="222.561" y2="9.0012" stroke="#BDA6F2" stroke-width="0.139759"/>
<line x1="211.38" y1="113.922" x2="211.38" y2="9.0012" stroke="#BDA6F2" stroke-width="0.139759"/>
<line x1="200.2" y1="113.922" x2="200.2" y2="9.0012" stroke="#BDA6F2" stroke-width="0.139759"/>
<line x1="189.019" y1="113.922" x2="189.019" y2="9.0012" stroke="#BDA6F2" stroke-width="0.139759"/>
<line x1="177.838" y1="113.922" x2="177.838" y2="9.0012" stroke="#BDA6F2" stroke-width="0.139759"/>
<line x1="166.658" y1="113.922" x2="166.658" y2="9.0012" stroke="#BDA6F2" stroke-width="0.139759"/>
<line x1="155.477" y1="113.922" x2="155.477" y2="9.0012" stroke="#BDA6F2" stroke-width="0.139759"/>
<line x1="144.296" y1="113.922" x2="144.296" y2="9.0012" stroke="#BDA6F2" stroke-width="0.139759"/>
<line x1="133.116" y1="113.922" x2="133.116" y2="9.0012" stroke="#BDA6F2" stroke-width="0.139759"/>
<line x1="121.935" y1="113.922" x2="121.935" y2="9.0012" stroke="#BDA6F2" stroke-width="0.139759"/>
<line x1="110.754" y1="113.922" x2="110.754" y2="9.0012" stroke="#BDA6F2" stroke-width="0.139759"/>
<line x1="99.5733" y1="113.922" x2="99.5733" y2="9.0012" stroke="#BDA6F2" stroke-width="0.139759"/>
<line x1="88.3928" y1="113.922" x2="88.3928" y2="9.0012" stroke="#BDA6F2" stroke-width="0.139759"/>
<line x1="77.212" y1="113.922" x2="77.212" y2="9.0012" stroke="#BDA6F2" stroke-width="0.139759"/>
<line x1="66.0313" y1="113.922" x2="66.0313" y2="9.0012" stroke="#BDA6F2" stroke-width="0.139759"/>
<line x1="54.8505" y1="113.922" x2="54.8505" y2="9.0012" stroke="#BDA6F2" stroke-width="0.139759"/>
<line x1="43.6698" y1="113.922" x2="43.6698" y2="9.0012" stroke="#BDA6F2" stroke-width="0.139759"/>
<line x1="32" y1="113.853" x2="233.672" y2="113.853" stroke="#BDA6F2" stroke-width="0.139759"/>
</g>
<path d="M87.9999 59.7079C87.9999 57.2832 89.9655 55.3176 92.3902 55.3176H101.171C103.595 55.3176 105.561 57.2832 105.561 59.7079V110.744H87.9999V59.7079Z" fill="#865BE9"/>
<path d="M112.146 22.3905C112.146 19.9658 114.112 18.0002 116.537 18.0002H125.317C127.742 18.0002 129.707 19.9658 129.707 22.3905V110.744H112.146V22.3905Z" fill="#6832E3"/>
<path d="M136.293 41.0495C136.293 38.6249 138.258 36.6593 140.683 36.6593H149.463C151.888 36.6593 153.854 38.6249 153.854 41.0495V110.745H136.293V41.0495Z" fill="#9A76EC"/>
<path d="M160.439 90.4392C160.439 88.0145 162.405 86.049 164.829 86.049H173.61C176.034 86.049 178 88.0145 178 90.4392V110.744H160.439V90.4392Z" fill="#BAA1F2"/>
<line x1="74.9999" y1="110.5" x2="191.017" y2="110.5" stroke="#865BE9"/>
<path fill-rule="evenodd" clip-rule="evenodd" d="M254 111C255.838 111 257.267 111.906 255.766 113.591C255.154 114.275 254.604 114.347 253.76 114.388C253.461 114.418 253.228 114.671 253.228 114.978C253.228 115.31 253.68 115.583 253.978 115.583C255.186 115.583 256.312 114.989 256.951 114.005C257.588 113.024 257.979 113.205 258 115C258 117.209 256.209 119 254 119C251.791 119 250 117.21 250 115C250 112.791 251.79 111 254 111H254Z" fill="#BDA6F2"/>
<defs>
<clipPath id="clip0_2_5494">
<rect x="32" y="9.00037" width="201.672" height="109.202" rx="54.6009" fill="white"/>
</clipPath>
</defs>
</svg>
