<svg width="36" height="36" viewBox="0 0 36 36" fill="none" xmlns="http://www.w3.org/2000/svg">
<rect width="36" height="36" rx="8" fill="#040921"/>
<path d="M2 18C2 9.16347 9.16347 2 18 2C26.8365 2 34 9.16347 34 18C34 26.8365 26.8365 34 18 34C9.16347 34 2 26.8365 2 18Z" fill="#040921"/>
<path d="M14.7996 27.6C16.5669 27.6 17.9996 26.1673 17.9996 24.4V21.2H14.7996C13.0323 21.2 11.5996 22.6326 11.5996 24.4C11.5996 26.1673 13.0323 27.6 14.7996 27.6Z" fill="#0ACF83"/>
<path d="M11.5996 17.9999C11.5996 16.2326 13.0323 14.7999 14.7996 14.7999H17.9996V21.1999H14.7996C13.0323 21.1999 11.5996 19.7672 11.5996 17.9999Z" fill="#A259FF"/>
<path d="M11.5996 11.6C11.5996 9.83271 13.0323 8.40002 14.7996 8.40002H17.9996V14.8H14.7996C13.0323 14.8 11.5996 13.3673 11.5996 11.6Z" fill="#F24E1E"/>
<path d="M18 8.40002H21.2C22.9673 8.40002 24.4 9.83271 24.4 11.6C24.4 13.3673 22.9673 14.8 21.2 14.8H18V8.40002Z" fill="#FF7262"/>
<path d="M24.4 17.9999C24.4 19.7672 22.9673 21.1999 21.2 21.1999C19.4327 21.1999 18 19.7672 18 17.9999C18 16.2326 19.4327 14.7999 21.2 14.7999C22.9673 14.7999 24.4 16.2326 24.4 17.9999Z" fill="#1ABCFE"/>
</svg>
