<svg width="36" height="36" viewBox="0 0 36 36" fill="none" xmlns="http://www.w3.org/2000/svg">
<rect width="36" height="36" rx="8" fill="#0077B5"/>
<path d="M2 18C2 9.16344 9.16344 2 18 2C26.8366 2 34 9.16344 34 18C34 26.8366 26.8366 34 18 34C9.16344 34 2 26.8366 2 18Z" fill="#0077B5"/>
<path fill-rule="evenodd" clip-rule="evenodd" d="M13.5458 11.8818C13.5458 12.9279 12.7584 13.7649 11.4941 13.7649H11.4709C10.2536 13.7649 9.46661 12.9279 9.46661 11.8818C9.46661 10.8136 10.2776 10 11.518 10C12.7584 10 13.5223 10.8136 13.5458 11.8818ZM13.3074 15.2519V26.1464H9.68145V15.2519H13.3074ZM26.3834 26.1463L26.3836 19.8998C26.3836 16.5535 24.5948 14.996 22.2088 14.996C20.2836 14.996 19.4217 16.0535 18.9404 16.7953V15.2522H15.3141C15.3619 16.2744 15.3141 26.1466 15.3141 26.1466H18.9404V20.0623C18.9404 19.7367 18.964 19.4119 19.0599 19.1787C19.3219 18.5283 19.9186 17.8548 20.9203 17.8548C22.2329 17.8548 22.7576 18.8538 22.7576 20.3178V26.1463H26.3834Z" fill="white"/>
</svg>
