<svg width="16" height="20" viewBox="0 0 16 20" fill="none" xmlns="http://www.w3.org/2000/svg">
<path fill-rule="evenodd" clip-rule="evenodd" d="M13 11.3V7C13 4.6 11.3 2.6 9 2.1V1C9 0.5 8.5 0 8 0C7.5 0 7 0.5 7 1V2.1C4.7 2.6 3 4.6 3 7V11.4C1.9 11.9 0 13.3 0 16C0 16.5 0.5 17 1 17H5C5 18.6569 6.34315 20 8 20C9.65685 20 11 18.6569 11 17H15C15.5 17 16 16.5 16 16C16 13.3 14.1 11.9 13 11.3ZM2.2 15H13.9C13.363 13.7469 12.2651 13.2549 11.8255 13.0579C11.774 13.0348 11.7315 13.0157 11.7 13C11.3 12.8 11 12.4 11 12V7C11 5.4 9.7 4 8 4C6.3 4 5 5.4 5 7V12C5 12.4 4.7 12.8 4.4 13C4.31604 13.056 4.19244 13.1105 4.04491 13.1755C3.48954 13.4204 2.59506 13.8148 2.2 15ZM8 18C7.44771 18 7 17.5523 7 17H9C9 17.5523 8.55228 18 8 18Z" fill="#667085"/>
</svg>
