<svg width="15" height="15" viewBox="0 0 15 15" fill="none" xmlns="http://www.w3.org/2000/svg">
<path fill-rule="evenodd" clip-rule="evenodd" d="M6.33333 0.5C3.11167 0.5 0.5 3.11167 0.5 6.33333C0.5 9.55499 3.11167 12.1667 6.33333 12.1667C7.64361 12.1667 8.85299 11.7347 9.82681 11.0053L13.2441 14.4227C13.5696 14.7481 14.0972 14.7481 14.4227 14.4227C14.7481 14.0972 14.7481 13.5696 14.4227 13.2441L11.0053 9.82681C11.7347 8.85299 12.1667 7.64361 12.1667 6.33333C12.1667 3.11167 9.55499 0.5 6.33333 0.5ZM2.16667 6.33333C2.16667 4.03215 4.03215 2.16667 6.33333 2.16667C8.63452 2.16667 10.5 4.03215 10.5 6.33333C10.5 8.63452 8.63452 10.5 6.33333 10.5C4.03215 10.5 2.16667 8.63452 2.16667 6.33333Z" fill="#667085"/>
</svg>
