<svg width="24" height="24" viewBox="0 0 24 24" fill="none" xmlns="http://www.w3.org/2000/svg">
<path fill-rule="evenodd" clip-rule="evenodd" d="M21.173 16.1339C22.0014 14.699 21.5098 12.8642 20.0749 12.0358L20.0128 11.9999L20.0749 11.9641C21.5097 11.1357 22.0014 9.30091 21.1729 7.86603L20.1729 6.13398C19.3445 4.6991 17.5097 4.20747 16.0749 5.0359L16.0127 5.0718V5C16.0127 3.34315 14.6695 2 13.0127 2L11.0127 2C9.35584 2 8.01269 3.34315 8.01269 5L8.01269 5.07168L7.95057 5.03582C6.51569 4.20739 4.68092 4.69902 3.85249 6.13389L2.85249 7.86594C2.02407 9.30082 2.51569 11.1356 3.95057 11.964L4.01279 11.9999L3.95051 12.0359C2.51564 12.8643 2.02401 14.6991 2.85244 16.134L3.85244 17.866C4.68086 19.3009 6.51563 19.7925 7.95051 18.9641L8.01269 18.9282V19C8.01269 20.6569 9.35584 22 11.0127 22H13.0127C14.6695 22 16.0127 20.6569 16.0127 19V18.9281L16.0749 18.964C17.5098 19.7925 19.3446 19.3008 20.173 17.8659L21.173 16.1339ZM17.0127 6.80384C15.6794 7.57365 14.0127 6.6114 14.0127 5.07179V5C14.0127 4.44772 13.565 4 13.0127 4L11.0127 4C10.4604 4 10.0127 4.44768 10.0127 4.99994L10.0127 5.07169C10.0127 6.61124 8.34611 7.57349 7.01278 6.80378L6.95057 6.76787C6.47228 6.49173 5.86069 6.6556 5.58454 7.13389L4.58455 8.86595C4.3084 9.34424 4.47228 9.95583 4.95057 10.232L5.0127 10.2678C6.34612 11.0376 6.34616 12.9622 5.01278 13.732L4.95051 13.7679C4.47222 14.0441 4.30835 14.6557 4.58449 15.134L5.58449 16.866C5.86063 17.3443 6.47222 17.5082 6.95051 17.2321L7.0127 17.1961C8.34603 16.4264 10.0127 17.3886 10.0127 18.9282V19C10.0127 19.5523 10.4604 20 11.0127 20H13.0127C13.565 20 14.0127 19.5523 14.0127 19V18.9281C14.0127 17.3884 15.6794 16.4262 17.0128 17.1961L17.0749 17.232C17.5532 17.5081 18.1648 17.3442 18.441 16.8659L19.441 15.1339C19.7171 14.6556 19.5532 14.044 19.0749 13.7679L19.0127 13.732C17.6795 12.9621 17.6795 11.0377 19.0128 10.2679L19.0749 10.232C19.5532 9.9559 19.717 9.34431 19.4409 8.86603L18.4409 7.13398C18.1648 6.65568 17.5532 6.49181 17.0749 6.76795L17.0127 6.80384Z" fill="#344054"/>
<path fill-rule="evenodd" clip-rule="evenodd" d="M12.0125 13.9999C13.1171 13.9999 14.0125 13.1045 14.0125 11.9999C14.0125 10.8954 13.1171 9.99994 12.0125 9.99994C10.9079 9.99994 10.0125 10.8954 10.0125 11.9999C10.0125 13.1045 10.9079 13.9999 12.0125 13.9999ZM12.0125 15.9999C14.2217 15.9999 16.0125 14.2091 16.0125 11.9999C16.0125 9.7908 14.2217 7.99994 12.0125 7.99994C9.80337 7.99994 8.01251 9.7908 8.01251 11.9999C8.01251 14.2091 9.80337 15.9999 12.0125 15.9999Z" fill="#344054"/>
</svg>
