<svg width="20" height="18" viewBox="0 0 20 18" fill="none" xmlns="http://www.w3.org/2000/svg">
<path fill-rule="evenodd" clip-rule="evenodd" d="M10.001 4.23607L9.43343 5.98278C9.03181 7.21885 7.87994 8.05573 6.58026 8.05573H4.74366L6.2295 9.13525C7.28097 9.89919 7.72094 11.2533 7.31932 12.4894L6.75178 14.2361L8.23762 13.1565C9.28908 12.3926 10.7129 12.3926 11.7643 13.1565L13.2502 14.2361L12.6826 12.4894C12.281 11.2533 12.721 9.89919 13.7724 9.13525L15.2583 8.05573H13.4217C12.122 8.05573 10.9701 7.21885 10.5685 5.98278L10.001 4.23607ZM10.952 0.690982C10.6527 -0.230328 9.34927 -0.230327 9.04992 0.690984L7.53132 5.36474C7.39745 5.77677 7.01349 6.05573 6.58026 6.05573H1.66598C0.697256 6.05573 0.29448 7.29534 1.07819 7.86474L5.05393 10.7533C5.40442 11.0079 5.55108 11.4593 5.4172 11.8713L3.89861 16.5451C3.59925 17.4664 4.65374 18.2325 5.43745 17.6631L9.41319 14.7746C9.76367 14.5199 10.2383 14.5199 10.5888 14.7746L14.5645 17.6631C15.3482 18.2325 16.4027 17.4664 16.1033 16.5451L14.5847 11.8713C14.4509 11.4593 14.5975 11.0079 14.948 10.7533L18.9238 7.86474C19.7075 7.29534 19.3047 6.05573 18.336 6.05573H13.4217C12.9885 6.05573 12.6045 5.77677 12.4706 5.36474L10.952 0.690982Z" fill="#344054"/>
</svg>
