<svg width="189" height="153" viewBox="0 0 189 153" fill="none" xmlns="http://www.w3.org/2000/svg">
<path fill-rule="evenodd" clip-rule="evenodd" d="M74.9168 5.05524C119.934 -7.37351 161.066 5.14092 135.674 56.5661C128.25 71.5493 114.691 83.4438 97.3023 88.2446L95.3596 88.7393C94.72 88.8328 94.0524 88.9755 93.3956 89.1568L93.0478 89.2529L91.9059 89.485L91.9485 89.6395C84.848 92.39 80.8468 100.19 82.9164 107.687C84.9968 115.222 92.4226 119.825 99.9285 118.543L99.9819 118.736C101.753 118.372 103.58 117.909 105.396 117.408C134.956 109.247 158.535 87.1003 167.527 58.6674C176.464 30.3332 187.284 32.1698 199.955 75.9555C214.891 130.053 183.142 186.02 129.045 200.955C74.9468 215.891 18.9804 184.142 4.04454 130.045C-10.8913 75.9469 20.8578 19.9804 74.9555 5.04457L74.9168 5.05524Z" fill="#E8E0FA"/>
</svg>
