<svg width="17" height="20" viewBox="0 0 17 20" fill="none" xmlns="http://www.w3.org/2000/svg">
<path d="M8.913 5.40687L0.576271 13.4358V15.2622C0.576271 17.4925 0.80678 18.6076 1.2678 18.6076C1.99774 18.6076 3.09906 18.5654 4.57175 18.481C6.04444 18.3966 7.14576 18.3544 7.87571 18.3544C8.09341 18.3544 8.42637 18.3665 8.87458 18.3906C9.02825 18.4027 9.62373 18.4448 10.661 18.5172C11.3782 18.5775 11.9736 18.6076 12.4475 18.6076C13.7665 18.6076 14.6501 18.1073 15.0983 17.1067C15.38 16.4798 15.5209 15.425 15.5209 13.9421C15.5209 13.5443 15.4889 13.2791 15.4249 13.1465C15.3096 12.9174 15.0535 12.8089 14.6565 12.821L11.2757 12.8933C10.1232 12.9174 9.36121 12.9295 8.98983 12.9295C8.34953 12.9415 7.99096 12.9415 7.91412 12.9295C9.68136 11.0368 11.1156 9.54189 12.2169 8.44485C13.9842 6.68475 14.8678 5.78059 14.8678 5.73237C14.8678 4.98493 14.7846 4.14105 14.6181 3.20072C14.4388 2.17601 14.2147 1.36227 13.9458 0.759495C12.5371 0.614829 11.3269 0.542496 10.3153 0.542496C6.97288 0.542496 3.98267 0.675106 1.34463 0.940326C1.20377 3.01386 1.08211 4.42435 0.979661 5.17179C1.61996 5.34057 2.63164 5.42495 4.01469 5.42495H5.22486C5.48098 5.42495 5.89077 5.41893 6.45424 5.40687C7.58117 5.38276 8.40075 5.38276 8.913 5.40687ZM0 15.5154V13.2188L6.64633 6.81736C6.50546 6.82942 6.22373 6.82942 5.80113 6.81736C3.62411 6.76914 2.14501 6.64256 1.36384 6.43761L0.480226 5.60579C0.46742 5.60579 0.422599 5.59373 0.345763 5.56962C0.384181 5.18385 0.416196 4.8704 0.441808 4.6293L0.557062 3.34539C0.621092 2.64617 0.665913 2.16395 0.691525 1.89873L0.80678 0.433997C3.66252 0.144666 6.83202 0 10.3153 0C11.3653 0 12.71 0.0843882 14.3492 0.253164L14.4068 0.415913L15.2712 1.21157C15.9883 2.81495 16.3469 4.62327 16.3469 6.63653C16.3469 6.79325 15.4185 7.81194 13.5616 9.69259L10.9107 12.3689H11.0836C11.1348 12.3689 11.1925 12.3629 11.2565 12.3508L14.6373 12.2785C15.252 12.2664 15.681 12.4714 15.9243 12.8933L16.635 13.5624C16.8783 13.7914 17 14.2194 17 14.8463C17 16.4014 16.8463 17.5226 16.539 18.2098L16.5198 18.1917C15.9819 19.3972 14.9446 20 13.4079 20C12.8957 20 12.5627 19.994 12.409 19.9819L10.6226 19.8373C9.87985 19.777 9.28437 19.7468 8.83616 19.7468C8.10621 19.7468 7.0049 19.789 5.5322 19.8734C4.05951 19.9578 2.95819 20 2.22825 20C2.03616 20 1.86328 19.9277 1.7096 19.783L0.979661 19.0958C0.326554 18.8427 0 17.6492 0 15.5154ZM1.32542 19.1682L2.22825 20L1.32542 19.1501V19.1682Z" fill="#6832E3"/>
</svg>
